<?xml version="1.0" encoding="utf-8"?>
<!-- Generator: Adobe Illustrator 16.0.0, SVG Export Plug-In . SVG Version: 6.00 Build 0)  -->
<!DOCTYPE svg PUBLIC "-//W3C//DTD SVG 1.1//EN" "http://www.w3.org/Graphics/SVG/1.1/DTD/svg11.dtd">
<svg version="1.1" id="Layer_1" xmlns="http://www.w3.org/2000/svg" xmlns:xlink="http://www.w3.org/1999/xlink" x="0px" y="0px"
	 width="160px" height="160px" viewBox="0 0 160 160" enable-background="new 0 0 160 160" xml:space="preserve">
<g>
	<polygon fill="#010101" stroke="#010101" stroke-miterlimit="10" points="9.835,10.048 19.834,10.048 19.834,0 0,0 0,19.996 
		9.835,19.996 	"/>
	<polygon fill="#010101" stroke="#010101" stroke-miterlimit="10" points="9.835,139.997 0,139.997 0,160 19.834,160 19.834,150.34 
		9.835,150.34 	"/>
	<rect y="39.996" fill="#010101" stroke="#010101" stroke-miterlimit="10" width="9.835" height="30"/>
	<rect y="89.996" fill="#010101" stroke="#010101" stroke-miterlimit="10" width="9.835" height="30.001"/>
	<rect x="39.834" fill="#010101" stroke="#010101" stroke-miterlimit="10" width="30.001" height="10.048"/>
	<rect x="89.835" fill="#010101" stroke="#010101" stroke-miterlimit="10" width="30.001" height="10.048"/>
	<rect x="89.835" y="150.34" fill="#010101" stroke="#010101" stroke-miterlimit="10" width="30.001" height="9.66"/>
	<rect x="39.834" y="150.34" fill="#010101" stroke="#010101" stroke-miterlimit="10" width="30.001" height="9.66"/>
	<rect x="149.884" y="89.996" fill="#010101" stroke="#010101" stroke-miterlimit="10" width="10.116" height="30.001"/>
	<rect x="149.884" y="39.996" fill="#010101" stroke="#010101" stroke-miterlimit="10" width="10.116" height="30"/>
	<polygon fill="#010101" stroke="#010101" stroke-miterlimit="10" points="149.884,150.34 139.836,150.34 139.836,160 160,160 
		160,139.997 149.884,139.997 	"/>
	<polygon fill="#010101" stroke="#010101" stroke-miterlimit="10" points="139.836,0 139.836,10.048 149.884,10.048 149.884,19.996 
		160,19.996 160,0 	"/>
	<path fill="#010101" stroke="#010101" stroke-miterlimit="10" d="M149.884,69.997"/>
</g>
</svg>
