<?xml version="1.0" encoding="utf-8"?>
<!-- Generator: Adobe Illustrator 16.0.0, SVG Export Plug-In . SVG Version: 6.00 Build 0)  -->
<!DOCTYPE svg PUBLIC "-//W3C//DTD SVG 1.1//EN" "http://www.w3.org/Graphics/SVG/1.1/DTD/svg11.dtd">
<svg version="1.1" id="Layer_1" xmlns="http://www.w3.org/2000/svg" xmlns:xlink="http://www.w3.org/1999/xlink" x="0px" y="0px"
	 width="160px" height="160px" viewBox="0 0 160 160" enable-background="new 0 0 160 160" xml:space="preserve">
<g>
	<path stroke="#000000" stroke-miterlimit="10" d="M86.568,93.929L30,149.913l-20-20l56.568-56.568l-7.071-7.071
		c0,0-53.987,53.986-56.568,56.568S0,129.913,0,129.913s0,9.913,0,20s10,10,10,10s15.25-0.087,20,0s7.071-2.929,7.071-2.929
		l56.568-56.568L66.568,73.345L86.568,93.929z"/>
	<path stroke="#000000" stroke-miterlimit="10" d="M150.25,0c-9.75,0-20,0-20,0s-4.749,0.585-6.848,2.726
		s-21.724,21.451-28.55,28.192s-34.667,4.536-42.426,4.142s-8.993,5.648-8.993,5.648s-1.835,7.665,1.922,11.422l62.427,62.427
		c3.671,3.669,11.451,1.909,11.451,1.909s6.767-1.967,5.586-8.291s-1.985-36.008,4.176-43.115s26.473-26.273,28.594-28.284
		S160.25,30,160.25,30V10C160.25,10,160,0,150.25,0z"/>
</g>
</svg>
