<?xml version="1.0" encoding="utf-8"?>
<!-- Generator: Adobe Illustrator 16.0.0, SVG Export Plug-In . SVG Version: 6.00 Build 0)  -->
<!DOCTYPE svg PUBLIC "-//W3C//DTD SVG 1.1//EN" "http://www.w3.org/Graphics/SVG/1.1/DTD/svg11.dtd">
<svg version="1.1" id="Layer_1" xmlns="http://www.w3.org/2000/svg" xmlns:xlink="http://www.w3.org/1999/xlink" x="0px" y="0px"
	 width="160px" height="160px" viewBox="0 0 160 160" enable-background="new 0 0 160 160" xml:space="preserve">
<g>
	<path stroke="#000000" stroke-miterlimit="10" d="M80,0C57.909,0,37.908,8.955,23.431,23.432l14.037,14.035v0.004
		C48.317,26.675,63.271,20,79.786,20c33.137,0,60,26.863,60,60c0,33.137-26.863,60-60,60c-33.137,0-60-26.863-60-60H0
		c0,44.183,35.817,80,80,80s80-35.817,80-80S124.183,0,80,0z"/>
</g>
<path stroke="#000000" stroke-miterlimit="10" d="M64.666,70"/>
<polygon stroke="#000000" stroke-miterlimit="10" points="20.092,20.427 0,0 0,60.833 59.833,60.833 "/>
</svg>
