<?xml version="1.0" encoding="utf-8"?>
<!-- Generator: Adobe Illustrator 16.0.0, SVG Export Plug-In . SVG Version: 6.00 Build 0)  -->
<!DOCTYPE svg PUBLIC "-//W3C//DTD SVG 1.1//EN" "http://www.w3.org/Graphics/SVG/1.1/DTD/svg11.dtd">
<svg version="1.1" id="Layer_1" xmlns="http://www.w3.org/2000/svg" xmlns:xlink="http://www.w3.org/1999/xlink" x="0px" y="0px"
	 width="160px" height="160px" viewBox="0 0 160 160" enable-background="new 0 0 160 160" xml:space="preserve">
<g>
	<polyline points="109.998,49.998 49.998,50.001 49.995,0.001 159.996,-0.004 160.002,109.995 110.002,109.998 110.001,99.998 	"/>
</g>
<path d="M-0.002,50.004l0.006,110l110-0.006l-0.006-110L-0.002,50.004z M10.165,60.004l90-0.005l0.005,90l-90,0.005L10.165,60.004z"
	/>
<rect x="20" y="70" width="10" height="40"/>
<rect x="30" y="110" width="10" height="10"/>
<rect x="40" y="120" width="10" height="20"/>
<rect x="50" y="100" width="10" height="20"/>
<rect x="60" y="120" width="10" height="20"/>
<rect x="70" y="109.998" width="10" height="10"/>
<rect x="80" y="70" width="10" height="40"/>
</svg>
