<?xml version="1.0" encoding="utf-8"?>
<!-- Generator: Adobe Illustrator 16.0.0, SVG Export Plug-In . SVG Version: 6.00 Build 0)  -->
<!DOCTYPE svg PUBLIC "-//W3C//DTD SVG 1.1//EN" "http://www.w3.org/Graphics/SVG/1.1/DTD/svg11.dtd">
<svg version="1.1" id="Layer_1" xmlns="http://www.w3.org/2000/svg" xmlns:xlink="http://www.w3.org/1999/xlink" x="0px" y="0px"
	 width="160px" height="160px" viewBox="0 0 160 160" enable-background="new 0 0 160 160" xml:space="preserve">
<rect x="80" stroke="#000000" stroke-miterlimit="10" width="20" height="10"/>
<rect x="90" y="10" stroke="#000000" stroke-miterlimit="10" width="20" height="10"/>
<rect x="100" y="20" stroke="#000000" stroke-miterlimit="10" width="20" height="10"/>
<rect x="100" y="30" stroke="#000000" stroke-miterlimit="10" width="20" height="10"/>
<rect x="100" y="40" stroke="#000000" stroke-miterlimit="10" width="20" height="10"/>
<rect x="90" y="50" stroke="#000000" stroke-miterlimit="10" width="20" height="10"/>
<rect x="80" y="60" stroke="#000000" stroke-miterlimit="10" width="20" height="10"/>
<rect x="70" y="70" stroke="#000000" stroke-miterlimit="10" width="20" height="10"/>
<rect x="60" y="80" stroke="#000000" stroke-miterlimit="10" width="20" height="10"/>
<rect x="50" y="90" stroke="#000000" stroke-miterlimit="10" width="20" height="10"/>
<rect x="40" y="100" stroke="#000000" stroke-miterlimit="10" width="20" height="10"/>
<rect x="40" y="110" stroke="#000000" stroke-miterlimit="10" width="20" height="10"/>
<rect x="40" y="120" stroke="#000000" stroke-miterlimit="10" width="20" height="10"/>
<rect x="50" y="130" stroke="#000000" stroke-miterlimit="10" width="20" height="10"/>
<rect x="60" y="140" stroke="#000000" stroke-miterlimit="10" width="20" height="10"/>
<rect x="70" y="150" stroke="#000000" stroke-miterlimit="10" width="20" height="10"/>
</svg>
