<?xml version="1.0" encoding="utf-8"?>
<!-- Generator: Adobe Illustrator 16.0.0, SVG Export Plug-In . SVG Version: 6.00 Build 0)  -->
<!DOCTYPE svg PUBLIC "-//W3C//DTD SVG 1.1//EN" "http://www.w3.org/Graphics/SVG/1.1/DTD/svg11.dtd">
<svg version="1.1" id="Layer_1" xmlns="http://www.w3.org/2000/svg" xmlns:xlink="http://www.w3.org/1999/xlink" x="0px" y="0px"
	 width="160px" height="160px" viewBox="0 0 160 160" enable-background="new 0 0 160 160" xml:space="preserve">
<g>
	<rect stroke="#000000" stroke-miterlimit="10" width="10" height="10"/>
	<rect y="40" stroke="#000000" stroke-miterlimit="10" width="10" height="10"/>
	<rect y="80" stroke="#000000" stroke-miterlimit="10" width="10" height="10"/>
	<rect y="120" stroke="#000000" stroke-miterlimit="10" width="10" height="10"/>
	<rect x="40" y="-0.001" stroke="#000000" stroke-miterlimit="10" width="10" height="10"/>
	<rect x="80" y="-0.001" stroke="#000000" stroke-miterlimit="10" width="10" height="10"/>
	<rect x="120" y="-0.002" stroke="#000000" stroke-miterlimit="10" width="10" height="10"/>
	<rect x="20" y="20.001" stroke="#000000" stroke-miterlimit="10" width="10" height="10"/>
	<rect x="20" y="60.001" stroke="#000000" stroke-miterlimit="10" width="10" height="10"/>
	<rect x="20" y="100.001" stroke="#000000" stroke-miterlimit="10" width="10" height="10"/>
	<rect x="20" y="140.001" stroke="#000000" stroke-miterlimit="10" width="10" height="10"/>
	<rect x="60" y="20" stroke="#000000" stroke-miterlimit="10" width="10" height="10"/>
	<rect x="100" y="20" stroke="#000000" stroke-miterlimit="10" width="10" height="10"/>
	<rect x="140" y="19.999" stroke="#000000" stroke-miterlimit="10" width="10" height="10"/>
	<rect x="20" y="40" stroke="#000000" stroke-miterlimit="10" width="10" height="10"/>
	<rect x="20" y="80" stroke="#000000" stroke-miterlimit="10" width="10" height="10"/>
	<rect x="20" y="120" stroke="#000000" stroke-miterlimit="10" width="10" height="10"/>
	<rect x="40" y="20" stroke="#000000" stroke-miterlimit="10" width="10" height="10"/>
	<rect x="80" y="19.999" stroke="#000000" stroke-miterlimit="10" width="10" height="10"/>
	<rect x="120" y="19.999" stroke="#000000" stroke-miterlimit="10" width="10" height="10"/>
	<rect x="140" y="40" stroke="#000000" stroke-miterlimit="10" width="10" height="10"/>
	<rect x="100" y="40" stroke="#000000" stroke-miterlimit="10" width="10" height="10"/>
	<rect x="120" y="40" stroke="#000000" stroke-miterlimit="10" width="10" height="10"/>
	<rect x="80" y="40" stroke="#000000" stroke-miterlimit="10" width="10" height="10"/>
	<rect x="60" y="40" stroke="#000000" stroke-miterlimit="10" width="10" height="10"/>
	<rect x="40" y="120.001" stroke="#000000" stroke-miterlimit="10" width="10" height="9.999"/>
	<rect x="40" y="80.001" stroke="#000000" stroke-miterlimit="10" width="10" height="9.999"/>
	<rect x="130" y="50" stroke="#000000" stroke-miterlimit="10" width="10" height="10"/>
	<rect x="150" y="50" stroke="#000000" stroke-miterlimit="10" width="10" height="10"/>
	<rect x="90" y="50" stroke="#000000" stroke-miterlimit="10" width="10" height="10"/>
	<rect x="50" y="90.001" stroke="#000000" stroke-miterlimit="10" width="10" height="9.999"/>
	<rect x="70" y="50" stroke="#000000" stroke-miterlimit="10" width="10" height="10"/>
	<polygon stroke="#000000" stroke-miterlimit="10" points="50,140 40,140 40,150.001 50,150.001 50,160 60,160 60,150 50,150 	"/>
	<rect x="50" y="130.001" stroke="#000000" stroke-miterlimit="10" width="10" height="9.999"/>
	<path stroke="#000000" stroke-miterlimit="10" d="M140,60v10h-10V60h-10v10h-10V60h-10v10H90V60H80v10H70V60H60V50H50V40H40v10h10
		v10h10v10h10v10H60V70H50V60H40v10.001h10v10h10v10h10v10H60V110h10v10H60v-10H50v-10H40v10.001h10v10h10v10h10v10H60V150h10v10h90
		V70h-10V60H140z M90,150.001H80v-10h10V150.001z M90,130.001H80v-10h10V130.001z M90,110.001H80v-10h10V110.001z M90,90H80V80h10
		V90z M110,150.001h-10v-10h10V150.001z M110,110.001h-10v-10h10V110.001z M110,90.001h-10v-10h10V90.001z M130,90.001h-10v-10h10
		V90.001z M150,110.001h-10v-10h10V110.001z M150,90.001h-10v-10h10V90.001z"/>
	<rect x="110" y="50" stroke="#000000" stroke-miterlimit="10" width="10" height="10"/>
	<rect x="40" y="160" stroke="#000000" stroke-miterlimit="10" width="10" height="0.001"/>
</g>
</svg>
