<?xml version="1.0" encoding="utf-8"?>
<!-- Generator: Adobe Illustrator 16.0.0, SVG Export Plug-In . SVG Version: 6.00 Build 0)  -->
<!DOCTYPE svg PUBLIC "-//W3C//DTD SVG 1.1//EN" "http://www.w3.org/Graphics/SVG/1.1/DTD/svg11.dtd">
<svg version="1.1" id="Layer_1" xmlns="http://www.w3.org/2000/svg" xmlns:xlink="http://www.w3.org/1999/xlink" x="0px" y="0px"
	 width="160px" height="160px" viewBox="0 0 160 160" enable-background="new 0 0 160 160" xml:space="preserve">
<rect stroke="#000000" stroke-miterlimit="10" width="20" height="20"/>
<rect x="139.932" stroke="#000000" stroke-miterlimit="10" width="20" height="20"/>
<rect x="139.932" y="139.902" stroke="#000000" stroke-miterlimit="10" width="20" height="20"/>
<rect y="139.902" stroke="#000000" stroke-miterlimit="10" width="20" height="20"/>
<rect y="70" stroke="#000000" stroke-miterlimit="10" width="20" height="20"/>
<rect x="69.786" stroke="#000000" stroke-miterlimit="10" width="20" height="20"/>
<rect x="139.932" y="70" stroke="#000000" stroke-miterlimit="10" width="20" height="20"/>
<rect x="69.786" y="139.902" stroke="#000000" stroke-miterlimit="10" width="20" height="20"/>
<rect x="10" y="20" stroke="#000000" stroke-miterlimit="10" width="10" height="50"/>
<rect x="10" y="90" stroke="#000000" stroke-miterlimit="10" width="10" height="50"/>
<rect x="139.932" y="20" stroke="#000000" stroke-miterlimit="10" width="10" height="50"/>
<rect x="20" y="10" stroke="#000000" stroke-miterlimit="10" width="50" height="10"/>
<rect x="89.786" y="10" stroke="#000000" stroke-miterlimit="10" width="50" height="10"/>
<rect x="20" y="139.902" stroke="#000000" stroke-miterlimit="10" width="50" height="10"/>
<rect x="89.786" y="139.902" stroke="#000000" stroke-miterlimit="10" width="50" height="10"/>
<rect x="139.932" y="90" stroke="#000000" stroke-miterlimit="10" width="10" height="50"/>
<rect x="109.835" y="29.951" stroke="#000000" stroke-miterlimit="10" width="10" height="30"/>
<rect x="119.835" y="39.903" stroke="#000000" stroke-miterlimit="10" width="10" height="10"/>
<rect x="99.884" y="39.903" stroke="#000000" stroke-miterlimit="10" width="10" height="10"/>
<rect x="20" y="109.806" stroke="#000000" stroke-miterlimit="10" width="20" height="10"/>
<rect x="40" y="99.854" stroke="#000000" stroke-miterlimit="10" width="10" height="10"/>
<rect x="50" y="90" stroke="#000000" stroke-miterlimit="10" width="10" height="10"/>
<rect x="60" y="90" stroke="#000000" stroke-miterlimit="10" width="10" height="10"/>
<rect x="70" y="100" stroke="#000000" stroke-miterlimit="10" width="20" height="10"/>
<rect x="90" y="110" stroke="#000000" stroke-miterlimit="10" width="50" height="10"/>
</svg>
