<?xml version="1.0" encoding="utf-8"?>
<!-- Generator: Adobe Illustrator 16.0.0, SVG Export Plug-In . SVG Version: 6.00 Build 0)  -->
<!DOCTYPE svg PUBLIC "-//W3C//DTD SVG 1.1//EN" "http://www.w3.org/Graphics/SVG/1.1/DTD/svg11.dtd">
<svg version="1.1" id="Layer_1" xmlns="http://www.w3.org/2000/svg" xmlns:xlink="http://www.w3.org/1999/xlink" x="0px" y="0px"
	 width="160px" height="160px" viewBox="0 0 160 160" enable-background="new 0 0 160 160" xml:space="preserve">
<g>
	<polygon points="9.834,100 9.834,10 99.834,10 99.834,50 110,50 110,0 0,0 0,110 50,110 50,100 	"/>
	<rect x="80" y="19.835" width="10.168" height="30.165"/>
</g>
<path d="M50,50v110h110V50H50z M149.834,150h-90V60h90V150z"/>
<rect x="70" y="70" fill="#231F20" width="10" height="40"/>
<rect x="80" y="110" fill="#231F20" width="10" height="10"/>
<rect x="90" y="120" fill="#231F20" width="10" height="20"/>
<rect x="100" y="100" fill="#231F20" width="10" height="20"/>
<rect x="110" y="120" fill="#231F20" width="10" height="20"/>
<rect x="120" y="109.998" fill="#231F20" width="10" height="10"/>
<rect x="130" y="70" fill="#231F20" width="10" height="40"/>
<rect x="20" y="20" fill="#231F20" width="10" height="40"/>
<rect x="30" y="60" fill="#231F20" width="10" height="10"/>
<rect x="40" y="70" fill="#231F20" width="10" height="20"/>
<rect x="80" y="20" fill="#231F20" width="10" height="30"/>
</svg>
