<?xml version="1.0" encoding="utf-8"?>
<!-- Generator: Adobe Illustrator 16.0.0, SVG Export Plug-In . SVG Version: 6.00 Build 0)  -->
<!DOCTYPE svg PUBLIC "-//W3C//DTD SVG 1.1//EN" "http://www.w3.org/Graphics/SVG/1.1/DTD/svg11.dtd">
<svg version="1.1" id="Layer_1" xmlns="http://www.w3.org/2000/svg" xmlns:xlink="http://www.w3.org/1999/xlink" x="0px" y="0px"
	 width="160px" height="160px" viewBox="0 0 160 160" enable-background="new 0 0 160 160" xml:space="preserve">
<g>
	<path stroke="#000000" stroke-miterlimit="10" d="M105,0C74.625,0,50,24.625,50,55c0,7.496,1.505,14.64,4.221,21.151l30.087,29.809
		C90.697,108.558,97.679,110,105,110c30.376,0,55-24.624,55-55C160,24.625,135.376,0,105,0z M104.835,99.806
		c-24.853,0-45-20.147-45-45s20.147-45,45-45c24.853,0,45,20.147,45,45S129.688,99.806,104.835,99.806z"/>
	<path stroke="#000000" stroke-miterlimit="10" d="M54.221,76.151l-0.008-0.008L0,129.951L29.98,160l54.346-54.021l-0.019-0.019
		C90.25,108.416,53.584,72.833,54.221,76.151z"/>
</g>
<rect x="70" y="50" stroke="#000000" stroke-miterlimit="10" width="70" height="10"/>
</svg>
