<?xml version="1.0" encoding="utf-8"?>
<!-- Generator: Adobe Illustrator 16.0.0, SVG Export Plug-In . SVG Version: 6.00 Build 0)  -->
<!DOCTYPE svg PUBLIC "-//W3C//DTD SVG 1.1//EN" "http://www.w3.org/Graphics/SVG/1.1/DTD/svg11.dtd">
<svg version="1.1" id="Layer_1" xmlns="http://www.w3.org/2000/svg" xmlns:xlink="http://www.w3.org/1999/xlink" x="0px" y="0px"
	 width="160px" height="160px" viewBox="0 0 160 160" enable-background="new 0 0 160 160" xml:space="preserve">
<path d="M-0.002,0.006l0.006,110l110-0.006L109.998,0L-0.002,0.006z M10.165,10.006l90-0.005l0.005,90l-90,0.005L10.165,10.006z"/>
<rect x="20" y="20.002" width="10" height="40"/>
<rect x="30" y="60.002" width="10" height="10"/>
<rect x="40" y="70.002" width="10" height="20"/>
<rect x="50" y="50.002" width="10" height="20"/>
<rect x="60" y="70.002" width="10" height="20"/>
<rect x="70" y="60" width="10" height="10"/>
<rect x="80" y="20.002" width="10" height="40"/>
<polyline points="110.004,40.002 160,40.002 160,160 40,158.75 40,110.006 110.004,110 "/>
</svg>
