<?xml version="1.0" encoding="utf-8"?>
<!-- Generator: Adobe Illustrator 16.0.0, SVG Export Plug-In . SVG Version: 6.00 Build 0)  -->
<!DOCTYPE svg PUBLIC "-//W3C//DTD SVG 1.1//EN" "http://www.w3.org/Graphics/SVG/1.1/DTD/svg11.dtd">
<svg version="1.1" id="Layer_1" xmlns="http://www.w3.org/2000/svg" xmlns:xlink="http://www.w3.org/1999/xlink" x="0px" y="0px"
	 width="160px" height="160px" viewBox="0 0 160 160" enable-background="new 0 0 160 160" xml:space="preserve">
<rect y="29.75" width="10.115" height="30"/>
<rect x="29.833" y="-0.095" width="100.001" height="10"/>
<rect x="149.713" y="29.75" width="10.312" height="30"/>
<path d="M0,29.75C0,13.254,13.343-0.095,29.833-0.095v10c-10.899,0-19.718,8.876-19.718,19.845H0z"/>
<path d="M159.908,29.75c0-16.496-13.451-29.845-30.074-29.845v10c10.987,0,19.879,8.876,19.879,19.845H159.908z"/>
<path d="M0,59.75v100.062h160V59.75H0z M110,79.834v10H70v10h30v10v10H70v10h40v10v10H50v-10v-60v-10h60V79.834z"/>
</svg>
