<?xml version="1.0" encoding="utf-8"?>
<!-- Generator: Adobe Illustrator 16.0.0, SVG Export Plug-In . SVG Version: 6.00 Build 0)  -->
<!DOCTYPE svg PUBLIC "-//W3C//DTD SVG 1.1//EN" "http://www.w3.org/Graphics/SVG/1.1/DTD/svg11.dtd">
<svg version="1.1" id="Layer_1" xmlns="http://www.w3.org/2000/svg" xmlns:xlink="http://www.w3.org/1999/xlink" x="0px" y="0px"
	 width="160px" height="160px" viewBox="0 0 160 160" enable-background="new 0 0 160 160" xml:space="preserve">
<rect x="109.75" y="49.757" stroke="#000000" stroke-miterlimit="10" width="30.104" height="30"/>
<rect x="89.908" y="49.757" stroke="#000000" stroke-miterlimit="10" width="10" height="10"/>
<rect x="69.913" y="59.757" stroke="#000000" stroke-miterlimit="10" width="10" height="10"/>
<rect x="59.913" y="39.903" stroke="#000000" stroke-miterlimit="10" width="10" height="10"/>
<rect x="20.039" y="29.952" stroke="#000000" stroke-miterlimit="10" width="10" height="10"/>
<rect x="50.078" y="79.952" stroke="#000000" stroke-miterlimit="10" width="10" height="10"/>
<rect y="90" stroke="#000000" stroke-miterlimit="10" width="10" height="10"/>
<rect x="40.078" y="59.854" stroke="#000000" stroke-miterlimit="10" width="10" height="10"/>
<rect x="10" y="60" stroke="#000000" stroke-miterlimit="10" width="10" height="10"/>
<rect x="-0.039" y="49.855" stroke="#000000" stroke-miterlimit="10" width="10" height="10"/>
<g>
	<rect x="89.932" y="89.902" stroke="#000000" stroke-miterlimit="10" width="9.952" height="70.098"/>
	<rect x="99.884" y="80" stroke="#000000" stroke-miterlimit="10" width="50.116" height="9.902"/>
</g>
<rect x="99.908" y="150" stroke="#000000" stroke-miterlimit="10" width="60" height="10"/>
<rect x="150" y="89.902" stroke="#000000" stroke-miterlimit="10" width="10" height="60"/>
<rect x="99.884" y="89.902" stroke="#000000" stroke-miterlimit="10" width="50.116" height="60"/>
</svg>
